<svg xmlns="http://www.w3.org/2000/svg" xmlns:xlink="http://www.w3.org/1999/xlink" width="375" zoomAndPan="magnify" viewBox="0 0 375 374.999991" height="374.999991" preserveAspectRatio="xMidYMid meet" version="1.0"><defs><clipPath id="id1"><path d="M 192 46 L 356.9375 46 L 356.9375 196 L 192 196 Z M 192 46 " clip-rule="nonzero"/></clipPath><clipPath id="id2"><path d="M 17.9375 179 L 184 179 L 184 329 L 17.9375 329 Z M 17.9375 179 " clip-rule="nonzero"/></clipPath></defs><path fill="rgb(29.019165%, 45.878601%, 82.749939%)" d="M 208.574219 36.839844 C 235.316406 33.890625 258.890625 37.40625 279.230469 44.34375 C 246.9375 29.3125 201.570312 6.199219 149.015625 26.054688 C 103.472656 43.261719 88.542969 86.195312 67.898438 113.417969 C 124.949219 97.292969 137.667969 44.664062 208.574219 36.839844 " fill-opacity="1" fill-rule="nonzero"/><path fill="rgb(14.898682%, 80.389404%, 81.959534%)" d="M 67.523438 94.085938 C 78.339844 69.460938 93.171875 50.816406 109.351562 36.683594 C 80.179688 57.113281 37.46875 84.824219 28.398438 140.242188 C 20.535156 188.265625 50.273438 222.652344 63.542969 254.136719 C 78.097656 196.691406 38.851562 159.367188 67.523438 94.085938 " fill-opacity="1" fill-rule="nonzero"/><g clip-path="url(#id1)"><path fill="rgb(14.898682%, 80.389404%, 81.959534%)" d="M 328.703125 130.300781 C 344.628906 151.972656 353.375 174.132812 357.527344 195.207031 C 354.410156 159.742188 351.75 108.917969 308.269531 73.359375 C 270.585938 42.542969 225.921875 51.085938 192.007812 46.828125 C 234.507812 88.148438 286.472656 72.839844 328.703125 130.300781 " fill-opacity="1" fill-rule="nonzero"/></g><g clip-path="url(#id2)"><path fill="rgb(29.019165%, 45.878601%, 82.749939%)" d="M 46.605469 244.789062 C 30.675781 223.117188 21.933594 200.957031 17.777344 179.886719 C 20.894531 215.347656 23.550781 266.171875 67.035156 301.730469 C 104.714844 332.546875 149.382812 324 183.296875 328.261719 C 140.800781 286.941406 88.832031 302.25 46.605469 244.789062 " fill-opacity="1" fill-rule="nonzero"/></g><path fill="rgb(14.898682%, 80.389404%, 81.959534%)" d="M 166.730469 338.25 C 139.992188 341.199219 116.414062 337.683594 96.074219 330.746094 C 128.363281 345.78125 173.734375 368.890625 226.289062 349.035156 C 271.832031 331.828125 286.761719 288.898438 307.410156 261.671875 C 250.355469 277.796875 237.636719 330.429688 166.730469 338.25 " fill-opacity="1" fill-rule="nonzero"/><path fill="rgb(29.019165%, 45.878601%, 82.749939%)" d="M 307.78125 281.007812 C 296.964844 305.628906 282.132812 324.273438 265.949219 338.40625 C 295.125 317.976562 337.832031 290.265625 346.90625 234.847656 C 354.765625 186.824219 325.03125 152.441406 311.761719 120.960938 C 297.210938 178.398438 336.453125 215.722656 307.78125 281.007812 " fill-opacity="1" fill-rule="nonzero"/><path fill="rgb(21.958923%, 44.309998%, 75.689697%)" d="M 289.550781 156.195312 L 219.019531 156.195312 L 219.019531 85.703125 L 156.285156 85.703125 L 156.285156 156.195312 L 85.753906 156.195312 L 85.753906 218.894531 L 156.285156 218.894531 L 156.285156 289.386719 L 219.019531 289.386719 L 219.019531 218.894531 L 289.550781 218.894531 L 289.550781 156.195312 " fill-opacity="1" fill-rule="nonzero"/></svg>