<svg xmlns="http://www.w3.org/2000/svg" xmlns:xlink="http://www.w3.org/1999/xlink" width="375" zoomAndPan="magnify" viewBox="0 0 375 374.999991" height="374.999991" preserveAspectRatio="xMidYMid meet" version="1.0"><defs><clipPath id="id1"><path d="M 191 48 L 355.488281 48 L 355.488281 196 L 191 196 Z M 191 48 " clip-rule="nonzero"/></clipPath><clipPath id="id2"><path d="M 19.644531 179 L 184 179 L 184 327 L 19.644531 327 Z M 19.644531 179 " clip-rule="nonzero"/></clipPath></defs><path fill="rgb(100%, 100%, 100%)" d="M 208.175781 38.347656 C 234.625 35.425781 257.9375 38.902344 278.050781 45.769531 C 246.117188 30.894531 201.25 8.019531 149.277344 27.667969 C 104.234375 44.699219 89.472656 87.191406 69.054688 114.132812 C 125.472656 98.175781 138.054688 46.089844 208.175781 38.347656 " fill-opacity="1" fill-rule="nonzero"/><path fill="rgb(100%, 100%, 100%)" d="M 68.683594 95 C 79.378906 70.628906 94.046875 52.175781 110.050781 38.191406 C 81.199219 58.40625 38.960938 85.835938 29.992188 140.679688 C 22.214844 188.210938 51.625 222.242188 64.746094 253.402344 C 79.140625 196.546875 40.328125 159.609375 68.683594 95 " fill-opacity="1" fill-rule="nonzero"/><g clip-path="url(#id1)"><path fill="rgb(100%, 100%, 100%)" d="M 326.976562 130.84375 C 342.730469 152.292969 351.378906 174.222656 355.484375 195.078125 C 352.40625 159.980469 349.773438 109.679688 306.773438 74.488281 C 269.503906 43.988281 225.335938 52.441406 191.792969 48.230469 C 233.824219 89.125 285.214844 73.976562 326.976562 130.84375 " fill-opacity="1" fill-rule="nonzero"/></g><g clip-path="url(#id2)"><path fill="rgb(100%, 100%, 100%)" d="M 47.996094 244.148438 C 32.242188 222.703125 23.59375 200.769531 19.488281 179.914062 C 22.570312 215.011719 25.199219 265.3125 68.199219 300.503906 C 105.464844 331.003906 149.640625 322.546875 183.179688 326.761719 C 141.148438 285.871094 89.757812 301.019531 47.996094 244.148438 " fill-opacity="1" fill-rule="nonzero"/></g><path fill="rgb(100%, 100%, 100%)" d="M 166.796875 336.648438 C 140.351562 339.570312 117.035156 336.089844 96.917969 329.222656 C 128.851562 344.105469 173.722656 366.976562 225.699219 347.320312 C 270.734375 330.292969 285.5 287.804688 305.921875 260.859375 C 249.5 276.820312 236.917969 328.910156 166.796875 336.648438 " fill-opacity="1" fill-rule="nonzero"/><path fill="rgb(100%, 100%, 100%)" d="M 306.289062 279.996094 C 295.59375 304.363281 280.925781 322.816406 264.921875 336.804688 C 293.769531 316.585938 336.011719 289.160156 344.980469 234.3125 C 352.753906 186.785156 323.347656 152.753906 310.226562 121.597656 C 295.835938 178.445312 334.644531 215.386719 306.289062 279.996094 " fill-opacity="1" fill-rule="nonzero"/><path fill="rgb(100%, 100%, 100%)" d="M 288.261719 156.472656 L 218.507812 156.472656 L 218.507812 86.707031 L 156.464844 86.707031 L 156.464844 156.472656 L 86.710938 156.472656 L 86.710938 218.523438 L 156.464844 218.523438 L 156.464844 288.289062 L 218.507812 288.289062 L 218.507812 218.523438 L 288.261719 218.523438 L 288.261719 156.472656 " fill-opacity="1" fill-rule="nonzero"/></svg>